<svg width="110" height="80" viewBox="0 0 110 80" fill="none" xmlns="http://www.w3.org/2000/svg">
<path opacity="0.05" d="M65 29.5V21C67.75 19.8333 70.5625 18.9583 73.4375 18.375C76.3125 17.7917 79.3333 17.5 82.5 17.5C84.6667 17.5 86.7917 17.6667 88.875 18C90.9583 18.3333 93 18.75 95 19.25V27.25C93 26.5 90.9792 25.9375 88.9375 25.5625C86.8958 25.1875 84.75 25 82.5 25C79.3333 25 76.2917 25.3958 73.375 26.1875C70.4583 26.9792 67.6667 28.0833 65 29.5V29.5M65 57V48.5C67.75 47.3333 70.5625 46.4583 73.4375 45.875C76.3125 45.2917 79.3333 45 82.5 45C84.6667 45 86.7917 45.1667 88.875 45.5C90.9583 45.8333 93 46.25 95 46.75V54.75C93 54 90.9792 53.4375 88.9375 53.0625C86.8958 52.6875 84.75 52.5 82.5 52.5C79.3333 52.5 76.2917 52.875 73.375 53.625C70.4583 54.375 67.6667 55.5 65 57V57M65 43.25V34.75C67.75 33.5833 70.5625 32.7083 73.4375 32.125C76.3125 31.5417 79.3333 31.25 82.5 31.25C84.6667 31.25 86.7917 31.4167 88.875 31.75C90.9583 32.0833 93 32.5 95 33V41C93 40.25 90.9792 39.6875 88.9375 39.3125C86.8958 38.9375 84.75 38.75 82.5 38.75C79.3333 38.75 76.2917 39.1458 73.375 39.9375C70.4583 40.7292 67.6667 41.8333 65 43.25V43.25M27.5 60C31.4167 60 35.2292 60.4375 38.9375 61.3125C42.6458 62.1875 46.3333 63.5 50 65.25V16C46.5833 14 42.9583 12.5 39.125 11.5C35.2917 10.5 31.4167 10 27.5 10C24.5 10 21.5208 10.2917 18.5625 10.875C15.6042 11.4583 12.75 12.3333 10 13.5V13.5V13.5V63V63V63C12.9167 62 15.8125 61.25 18.6875 60.75C21.5625 60.25 24.5 60 27.5 60V60M60 65.25C63.6667 63.5 67.3542 62.1875 71.0625 61.3125C74.7708 60.4375 78.5833 60 82.5 60C85.5 60 88.4375 60.25 91.3125 60.75C94.1875 61.25 97.0833 62 100 63V63V63V13.5V13.5V13.5C97.25 12.3333 94.3958 11.4583 91.4375 10.875C88.4792 10.2917 85.5 10 82.5 10C78.5833 10 74.7083 10.5 70.875 11.5C67.0417 12.5 63.4167 14 60 16V65.25V65.25M55 80C51 76.8333 46.6667 74.375 42 72.625C37.3333 70.875 32.5 70 27.5 70C24 70 20.5625 70.4583 17.1875 71.375C13.8125 72.2917 10.5833 73.5833 7.5 75.25C5.75 76.1667 4.0625 76.125 2.4375 75.125C0.8125 74.125 0 72.6667 0 70.75V10.5C0 9.58333 0.229167 8.70833 0.6875 7.875C1.14583 7.04167 1.83333 6.41667 2.75 6C6.58333 4 10.5833 2.5 14.75 1.5C18.9167 0.5 23.1667 0 27.5 0C32.3333 0 37.0625 0.625 41.6875 1.875C46.3125 3.125 50.75 5 55 7.5C59.25 5 63.6875 3.125 68.3125 1.875C72.9375 0.625 77.6667 0 82.5 0C86.8333 0 91.0833 0.5 95.25 1.5C99.4167 2.5 103.417 4 107.25 6C108.167 6.41667 108.854 7.04167 109.312 7.875C109.771 8.70833 110 9.58333 110 10.5V70.75C110 72.6667 109.188 74.125 107.562 75.125C105.938 76.125 104.25 76.1667 102.5 75.25C99.4167 73.5833 96.1875 72.2917 92.8125 71.375C89.4375 70.4583 86 70 82.5 70C77.5 70 72.6667 70.875 68 72.625C63.3333 74.375 59 76.8333 55 80V80M30 38.25V38.25V38.25V38.25V38.25V38.25V38.25V38.25V38.25V38.25V38.25V38.25V38.25V38.25V38.25V38.25" fill="#1B1C1C"/>
</svg>
